<svg id="Filled" height="512" viewBox="0 0 512 512" width="512" xmlns="http://www.w3.org/2000/svg"><g><g><path d="m404.8 236.138a19.078 19.078 0 0 0 -16.528 9.749l-21.644-7.463a112.084 112.084 0 0 0 -93.052-93.052l-7.463-21.644a19.078 19.078 0 0 0 9.749-16.528c0-10.6-8.893-19.2-19.862-19.2s-19.862 8.6-19.862 19.2a19.078 19.078 0 0 0 9.749 16.528l-7.463 21.644a111.4 111.4 0 0 0 -48.213 19.978l-20.59-10.031a19.078 19.078 0 0 0 -4.794-18.581c-7.5-7.5-19.864-7.288-27.621.468s-7.966 20.123-.468 27.621a19.077 19.077 0 0 0 18.581 4.794l10.031 20.59a111.408 111.408 0 0 0 -19.957 48.078l-21.894 7.6a18.936 18.936 0 0 0 -16.422-9.749c-10.536-.002-19.077 8.891-19.077 19.86s8.541 19.862 19.077 19.862a18.936 18.936 0 0 0 16.422-9.749l21.894 7.6a112.086 112.086 0 0 0 92.9 92.9l7.6 21.894a18.936 18.936 0 0 0 -9.749 16.422c-.006 10.53 8.887 19.071 19.856 19.071s19.862-8.541 19.862-19.077a18.936 18.936 0 0 0 -9.749-16.422l7.6-21.894a111.4 111.4 0 0 0 47.967-19.876l20.863 10.112a18.937 18.937 0 0 0 4.719 18.506c7.45 7.45 19.777 7.2 27.534-.555s8-20.084.556-27.534a18.94 18.94 0 0 0 -18.507-4.719l-10.115-20.863a111.387 111.387 0 0 0 19.9-48.1l21.644-7.463a19.078 19.078 0 0 0 16.528 9.749c10.6 0 19.2-8.893 19.2-19.862s-8.602-19.864-19.202-19.864z" fill="#fac850"/><g fill="#fef4dc"><ellipse cx="288" cy="296" rx="32" ry="24"/><circle cx="200" cy="216" r="16"/></g></g><path d="m256 8c-136.967 0-248 111.033-248 248 0 136.967 111.033 248 248 248 136.967 0 248-111.033 248-248 0-136.967-111.033-248-248-248zm-216 248a216.006 216.006 0 0 1 361.25-159.878l-305.127 305.128a214.439 214.439 0 0 1 -56.123-145.25zm368.735 152.735a216.048 216.048 0 0 1 -289.4 14.561l303.965-303.964a216.046 216.046 0 0 1 -14.56 289.4z" fill="#fa5d3f"/><path d="m249.845 395.453a8 8 0 0 0 3.6-9.575l-7.6-21.893a8 8 0 0 0 -6.3-5.278 103.473 103.473 0 0 1 -22.215-6.132l-5.953 14.851a119.443 119.443 0 0 0 20.89 6.225l4.166 12.006a26.823 26.823 0 0 0 -8.294 19.267c0 14.93 12.5 27.076 27.862 27.076s27.862-12.146 27.862-27.077a26.82 26.82 0 0 0 -8.294-19.266l4.167-12.008a120.261 120.261 0 0 0 42.661-17.68l11.449 5.549a26.817 26.817 0 0 0 7.758 19.488 26.5 26.5 0 0 0 19.47 7.766 28.113 28.113 0 0 0 19.378-8.321c10.862-10.863 11.112-28.29.556-38.848a26.811 26.811 0 0 0 -19.488-7.758l-5.55-11.448a120.283 120.283 0 0 0 17.706-42.788l11.759-4.055a27.006 27.006 0 0 0 19.366 8.308c15 0 27.2-12.5 27.2-27.862s-12.2-27.862-27.2-27.862a27 27 0 0 0 -19.366 8.308l-11.758-4.054a119.392 119.392 0 0 0 -6.25-21.017l-14.852 5.954a103.374 103.374 0 0 1 6.153 22.341 8 8 0 0 0 5.294 6.317l21.643 7.463a8 8 0 0 0 9.548-3.585 11.026 11.026 0 0 1 9.588-5.727c6.176 0 11.2 5.321 11.2 11.862s-5.024 11.862-11.2 11.862a11.026 11.026 0 0 1 -9.588-5.727 8 8 0 0 0 -9.549-3.585l-21.642 7.464a8 8 0 0 0 -5.294 6.317 104.028 104.028 0 0 1 -18.473 44.651 8 8 0 0 0 -.723 8.186l10.114 20.863a8 8 0 0 0 9.316 4.225 10.88 10.88 0 0 1 10.731 2.66c4.319 4.319 4.07 11.6-.555 16.221s-11.9 4.874-16.22.555a10.885 10.885 0 0 1 -2.661-10.732 8 8 0 0 0 -4.226-9.315l-20.862-10.113a8 8 0 0 0 -8.186.722 104.023 104.023 0 0 1 -44.526 18.453 8 8 0 0 0 -6.3 5.278l-7.6 21.893a8 8 0 0 0 3.6 9.575 10.885 10.885 0 0 1 5.707 9.47c0 6.108-5.321 11.077-11.862 11.077s-11.861-4.969-11.862-11.077a10.885 10.885 0 0 1 5.705-9.47z"/><path d="m107.077 283.862a26.815 26.815 0 0 0 19.266-8.294l12.006 4.167a119.193 119.193 0 0 0 9.2 27.7l14.453-6.866a103.136 103.136 0 0 1 -8.711-28.11 8 8 0 0 0 -5.278-6.3l-21.894-7.6a8 8 0 0 0 -9.575 3.6 10.883 10.883 0 0 1 -9.47 5.707c-6.105-.004-11.074-5.325-11.074-11.866s4.969-11.862 11.077-11.862a10.883 10.883 0 0 1 9.47 5.707 8 8 0 0 0 9.575 3.6l21.894-7.6a8 8 0 0 0 5.277-6.3 104.016 104.016 0 0 1 18.527-44.629 8 8 0 0 0 .721-8.208l-10.031-20.59a8 8 0 0 0 -9.287-4.217 11.019 11.019 0 0 1 -10.827-2.73c-4.368-4.367-4.158-11.682.466-16.307s11.942-4.835 16.308-.468a11.025 11.025 0 0 1 2.73 10.829 8 8 0 0 0 4.217 9.287l20.59 10.031a8 8 0 0 0 8.208-.722 104.029 104.029 0 0 1 44.754-18.546 8 8 0 0 0 6.318-5.295l7.463-21.643a8 8 0 0 0 -3.586-9.549 11.022 11.022 0 0 1 -5.726-9.587c0-6.176 5.321-11.2 11.862-11.2s11.862 5.024 11.862 11.2a11.022 11.022 0 0 1 -5.726 9.587 8 8 0 0 0 -3.586 9.549l7.463 21.643a8 8 0 0 0 6.318 5.295 103.2 103.2 0 0 1 28.236 8.731l6.866-14.452a119.117 119.117 0 0 0 -27.825-9.229l-4.054-11.758a27.006 27.006 0 0 0 8.308-19.366c0-15-12.5-27.2-27.862-27.2s-27.862 12.2-27.862 27.2a27.006 27.006 0 0 0 8.308 19.366l-4.055 11.76a120.257 120.257 0 0 0 -42.891 17.773l-11.2-5.45a27.007 27.007 0 0 0 -7.82-19.569c-10.606-10.6-28.071-10.394-38.935.468s-11.073 28.329-.468 38.934a26.989 26.989 0 0 0 19.568 7.821l5.455 11.196a120.25 120.25 0 0 0 -17.752 42.769l-12.008 4.167a26.823 26.823 0 0 0 -19.266-8.294c-14.928-.004-27.074 12.495-27.074 27.858s12.146 27.862 27.077 27.862z"/><path d="m200 192a24 24 0 1 0 24 24 24.027 24.027 0 0 0 -24-24zm0 32a8 8 0 1 1 8-8 8.009 8.009 0 0 1 -8 8z"/><path d="m168 256h16v16h-16z"/><path d="m240 168h16v16h-16z"/><path d="m336 248h16v16h-16z"/><path d="m162.343 368.971-48.668 48.668a8 8 0 0 0 .585 11.843c40.303 33.049 89.317 50.518 141.74 50.518a224 224 0 0 0 224-224c0-52.424-17.469-101.437-50.519-141.741a8 8 0 0 0 -11.843-.584l-240.668 240.668 11.314 11.314 61.151-61.151c4.665 13.529 20.189 23.494 38.565 23.494 22.056 0 40-14.355 40-32 0-17.134-16.921-31.166-38.1-31.964l132.678-132.673a208.036 208.036 0 0 1 -166.578 332.637 205.1 205.1 0 0 1 -124.638-41.421l42.3-42.3zm149.657-72.971c0 8.673-10.99 16-24 16s-24-7.327-24-16 10.99-16 24-16 24 7.327 24 16z"/><path d="m90.208 406.636a8 8 0 0 0 5.728 2.612h.187a8 8 0 0 0 5.657-2.343l305.127-305.126a8 8 0 0 0 -.271-11.571 224.005 224.005 0 0 0 -316.428 316.428zm18.714-297.714a208.031 208.031 0 0 1 280.624-12.409l-293.032 293.033a208.03 208.03 0 0 1 12.408-280.624z"/><path d="m90.836 60.4 10.328 12.22a240.06 240.06 0 0 1 390.344 136.92l15.7-3.08a256.048 256.048 0 0 0 -416.372-146.06z"/><path d="m494.02 225.022a243.346 243.346 0 0 1 1.98 30.978 240 240 0 0 1 -409.706 169.706 240 240 0 0 1 .62-340.029l-11.273-11.354a256 256 0 1 0 361.379 362.697 254.331 254.331 0 0 0 74.98-181.02 259.4 259.4 0 0 0 -2.111-33.022z"/></g></svg>