<svg id="Filled" height="512" viewBox="0 0 512 512" width="512" xmlns="http://www.w3.org/2000/svg"><g><g><path d="m328 376-6.684-66.844a20 20 0 0 0 -13.936-17.1l-83.38-36.056h-96l-83.38 36.056a20 20 0 0 0 -13.936 17.1l-6.684 66.844a16 16 0 0 0 -16 16 16 16 0 0 0 16 16l8 96h288l8-96a16 16 0 0 0 16-16 16 16 0 0 0 -16-16z" fill="#fa5d3f"/><circle cx="384" cy="272" fill="#8ae6da" r="120"/><path d="m366.524 339.218a122.975 122.975 0 0 1 -48.531-77.107l-5.993-38.05 71.9-32.061 71.9 32.061-6.055 38.364a122.937 122.937 0 0 1 -49.164 77.559l-16.616 12.079z" fill="#f1fcfb"/><path d="m216 256-40 80-40-80 8-64h64z" fill="#ffd4cf"/><rect fill="#fac850" height="128" rx="64" width="176" x="88" y="8"/><path d="m208 192h-64l-4.78 38.239 6.148 3.842a58 58 0 0 0 61.254.142l6.178-3.823z" fill="#fbb8b0"/><path d="m260 112h-20v-8h-18.7a80 80 0 0 1 -68.6-38.84l-.7-1.16-40 40v8h-20a20 20 0 0 0 -20 20v16a20 20 0 0 0 20 20h20s8.881 29.551 23.5 38.688l19.408 12.13a40 40 0 0 0 42.244.1l19.148-11.851c14.735-9.113 23.7-39.067 23.7-39.067h20a20 20 0 0 0 20-20v-16a20 20 0 0 0 -20-20z" fill="#ffd4cf"/><path d="m117.232 181.448c4.08 9.192 10.453 20.584 18.592 25.619l19.153 10.95a40 40 0 0 0 42.243-.1l19.408-11.232c8.032-5.02 14.326-16.195 18.372-25.252l-58.872-29.433z" fill="#ffefed"/><g fill="#ffd4cf"><path d="m88 504h-56l-8-96h64z"/><path d="m328 408-8 96"/><path d="m320 504h-56v-96h64z"/></g></g><path d="m41.934 284.517a27.952 27.952 0 0 0 -19.209 23.843l-6.08 60.792a24 24 0 0 0 -.105 45.661l7.487 89.851a8 8 0 0 0 7.973 7.336h88v-16h-24v-88a8 8 0 0 0 -8-8h-64a8 8 0 0 1 0-16 8 8 0 0 0 7.96-7.2l6.685-66.844a11.982 11.982 0 0 1 8.361-10.26c.186-.057.369-.123.551-.194l84.564-33.367 36.724 73.447a8 8 0 0 0 14.31 0l36.724-73.447 17.184 6.78 5.874-14.883-19.587-7.732-4.43-35.443 1.594-.986a57.587 57.587 0 0 0 26.365-37.871h13.121a28.032 28.032 0 0 0 28-28v-16a28.044 28.044 0 0 0 -23.638-27.66 72.054 72.054 0 0 0 -64.362-104.34h-48a71.7 71.7 0 0 0 -56.2 27l12.479 10a55.771 55.771 0 0 1 43.721-21h48a56.063 56.063 0 0 1 56 56 55.419 55.419 0 0 1 -8.394 29.516 8 8 0 0 0 -7.606-5.516h-18.7a72.362 72.362 0 0 1 -61.739-34.956l-.7-1.159a8 8 0 0 0 -12.517-1.542l-40 40a8 8 0 0 0 -1.948 3.176 56.154 56.154 0 0 1 -4.329-50.519l-14.83-6a72.274 72.274 0 0 0 2.4 59.342 28.044 28.044 0 0 0 -23.637 27.658v16a28.032 28.032 0 0 0 28 28h13.175a57.622 57.622 0 0 0 26.085 37.472l1.849 1.156-4.459 35.672zm38.066 131.483v80h-40.639l-6.661-80zm168-296h12a12.013 12.013 0 0 1 12 12v16a12.013 12.013 0 0 1 -12 12h-12zm-144 40h-12a12.013 12.013 0 0 1 -12-12v-16a12.013 12.013 0 0 1 12-12h12zm72 158.111-31.762-63.522 3.828-30.614 2.6 1.627a47.707 47.707 0 0 0 50.693.117l2.591-1.6 3.81 30.473zm-55.5-147.3a42.632 42.632 0 0 1 -.5-6.518v-56.98l30.736-30.736a88.512 88.512 0 0 0 70.564 35.423h10.7v52.546a42.794 42.794 0 0 1 -.462 6.279l-51.96-25.98a8 8 0 0 0 -7.156 0zm5.481 15.148 50.019-25.015 50.142 25.071a41.976 41.976 0 0 1 -14.042 14.249l-19.152 11.847a31.8 31.8 0 0 1 -33.8-.078l-19.408-12.133a41.982 41.982 0 0 1 -13.76-13.946z"/><path d="m200 120h16v16h-16z"/><path d="m136 120h16v16h-16z"/><path d="m384 144a128 128 0 0 0 -48.121 246.612 8 8 0 0 1 -7.879 9.388h-64a8 8 0 0 0 -8 8v88h-120v16h184a8 8 0 0 0 7.973-7.336l7.487-89.851a24.076 24.076 0 0 0 16.228-18.944 128.1 128.1 0 0 0 127.717-38.534l-11.922-10.67a111.692 111.692 0 1 1 11.281-14.937l13.527 8.544a128.023 128.023 0 0 0 -108.291-196.272zm-71.361 352h-40.639v-80h47.305z"/><path d="m315.114 282.61a131.378 131.378 0 0 0 46.666 63.049l17.441 12.846a8 8 0 0 0 9.448.029l16.616-12.08a130.9 130.9 0 0 0 52.331-82.6c.011-.061.022-.123.031-.185l6.056-38.365a8 8 0 0 0 -4.644-8.554l-71.9-32.061a8.01 8.01 0 0 0 -6.515 0l-71.9 32.061a8 8 0 0 0 -4.644 8.552l5.993 38.05c.01.06.019.121.03.181q.185 1.016.386 2.025l15.691-3.124c-.109-.553-.216-1.108-.317-1.664l-5.025-31.9 63.042-28.11 63.042 28.11-5.085 32.214a114.965 114.965 0 0 1 -45.98 72.429l-11.877 8.637-12.727-9.374a115.438 115.438 0 0 1 -41.03-55.386z"/><path d="m375.81 296.061a7.982 7.982 0 0 0 5.657-2.343l48-48-11.315-11.318-42.342 42.347-18.343-18.347-11.315 11.315 24 24a7.982 7.982 0 0 0 5.658 2.346z"/></g></svg>