<svg id="Filled" height="512" viewBox="0 0 512 512" width="512" xmlns="http://www.w3.org/2000/svg"><g><g><g><path d="m248 96a88 88 0 0 0 -88-88 88 88 0 0 0 -88 88v84c0 59.647 8 108 88 108 72 0 88-48.353 88-108z" fill="#fac850"/><path d="m296 376-6.684-66.844a20 20 0 0 0 -13.936-17.1l-67.38-36.056h-96l-67.38 36.056a20 20 0 0 0 -13.936 17.1l-6.684 66.844a16 16 0 0 0 -16 16 16 16 0 0 0 16 16l8 96h256l8-96a16 16 0 0 0 16-16 16 16 0 0 0 -16-16z" fill="#fa5d3f"/><path d="m200 256-40 80-40-80 8-64h64z" fill="#ffd4cf"/><g><path d="m195.777 222.218-3.777-30.218h-64l-3.8 30.379 5.465 3.125a57.964 57.964 0 0 0 30.223 8.5 57.931 57.931 0 0 0 30.455-8.64z" fill="#fbb8b0"/><path d="m244 104h-20v-8l-32-32c-14.458 24.1-49.194 32-77.295 32h-18.705v8h-20a20 20 0 0 0 -20 20v16a20 20 0 0 0 20 20h20s8.965 29.954 23.7 39.067l19.152 10.95a40 40 0 0 0 42.244-.1l19.404-11.229c14.619-9.137 23.5-38.688 23.5-38.688h20a20 20 0 0 0 20-20v-16a20 20 0 0 0 -20-20z" fill="#ffd4cf"/><path d="m101.1 173.448c4.079 9.192 10.453 20.584 18.592 25.619l19.152 10.95a40 40 0 0 0 42.244-.1l19.412-11.229c8.031-5.02 14.325-16.195 18.372-25.252l-58.872-29.436z" fill="#ffefed"/></g><g fill="#ffd4cf"><path d="m80 504h-48l-8-96h56z"/><path d="m288 504h-48v-96h56z"/></g></g><g><circle cx="384" cy="296" fill="#8ae6da" r="120"/><path d="m366.524 363.218a122.975 122.975 0 0 1 -48.531-77.107l-5.993-38.05 71.9-32.061 71.9 32.061-6.055 38.364a122.937 122.937 0 0 1 -49.164 77.559l-16.616 12.079z" fill="#f1fcfb"/></g></g><path d="m184 120h16v16h-16z"/><path d="m120 120h16v16h-16z"/><path d="m384 168a126.91 126.91 0 0 0 -76.816 25.6l9.616 12.8a112.059 112.059 0 1 1 -14.93 13.459l-11.73-10.88a127.92 127.92 0 0 0 13.16 186.303 8.011 8.011 0 0 1 -7.3 4.718h-56a8 8 0 0 0 -8 8v88h-144v-88a8 8 0 0 0 -8-8h-56a8 8 0 0 1 0-16 8 8 0 0 0 7.96-7.2l6.685-66.844a11.982 11.982 0 0 1 8.361-10.26 7.94 7.94 0 0 0 1.066-.419l68.288-32.664 36.485 72.969a8 8 0 0 0 14.31 0l36.485-72.969 32.908 15.741 6.9-14.434-8.066-3.858c14.027-18.848 20.618-45.929 20.618-84.062a142.121 142.121 0 0 0 -.729-14.369 28.042 28.042 0 0 0 16.729-25.631v-16a28.036 28.036 0 0 0 -16-25.3v-2.7a96 96 0 0 0 -157.094-74.054l10.188 12.336a80 80 0 0 1 130.906 61.718h-8a8 8 0 0 0 -2.343-5.657l-32-32a8 8 0 0 0 -12.517 1.541c-12.44 20.73-44.54 28.116-70.435 28.116h-18.705a8 8 0 0 0 -8 8h-8a79.476 79.476 0 0 1 14.541-46l-13.082-9.216a95.4 95.4 0 0 0 -17.459 55.216v2.7a28.036 28.036 0 0 0 -16 25.3v16a28.042 28.042 0 0 0 16.729 25.631 142.121 142.121 0 0 0 -.729 14.369c0 29.413 1.531 62.159 18.288 85.171l-40.644 19.441a27.956 27.956 0 0 0 -18.919 23.748l-6.08 60.792a24 24 0 0 0 -.105 45.661l2.82 33.851 15.946-1.328-2.606-31.336h39.3v80h-32.639l-2.721-32.664-15.946 1.328 3.333 40a8 8 0 0 0 7.973 7.336h256a8 8 0 0 0 7.973-7.336l7.487-89.851a24.111 24.111 0 0 0 12.929-10.165 127.986 127.986 0 1 0 67.611-236.648zm-224 150.111-31.762-63.522 4.833-38.658 1.69.965a47.7 47.7 0 0 0 50.452-.118l1.7-.983 4.85 38.794zm17.085-115.111c-.079.045-.156.092-.233.14a31.8 31.8 0 0 1 -33.8.078c-.078-.049-.158-.1-.238-.142l-19.027-10.878a41.965 41.965 0 0 1 -13.933-14.179l50.146-25.075 50.02 25.01a41.974 41.974 0 0 1 -13.651 13.881zm54.915-91h12a12.013 12.013 0 0 1 12 12v16a12.013 12.013 0 0 1 -12 12h-12zm-1.175 56h8.6c.381 3.973.573 7.988.573 12 0 36.376-6.187 61.05-19.4 76.985l-13.2-6.315-5.447-43.578 2.558-1.481c.079-.045.156-.091.233-.139a57.622 57.622 0 0 0 26.083-37.472zm-126.825-64h10.7c13.394 0 55.71-2.153 78.218-27.764l23.082 23.077v56.975a42.632 42.632 0 0 1 -.5 6.518l-51.923-25.961a8 8 0 0 0 -7.156 0l-51.96 25.98a42.794 42.794 0 0 1 -.462-6.279zm-40 36v-16a12.013 12.013 0 0 1 12-12h12v40h-12a12.013 12.013 0 0 1 -12-12zm16 40c0-4.012.192-8.027.573-12h8.548a57.587 57.587 0 0 0 26.365 37.871c.078.048.159.1.239.142l2.3 1.313-5.425 43.344-15.559 7.442c-14.055-17.029-17.041-43.686-17.041-78.112zm200.639 316h-32.639v-80h39.305z"/><path d="m437.6 301.411 15.138 5.178a130.132 130.132 0 0 0 4.877-18.731c.011-.061.022-.123.031-.185l6.056-38.365a8 8 0 0 0 -4.644-8.554l-71.9-32.061a8.01 8.01 0 0 0 -6.515 0l-71.9 32.061a8 8 0 0 0 -4.644 8.552l5.993 38.05c.01.063.02.125.031.187a130.943 130.943 0 0 0 51.658 82.116l17.441 12.846a8 8 0 0 0 9.448.029l16.616-12.08a133.328 133.328 0 0 0 40.214-46.811l-14.244-7.286a117.264 117.264 0 0 1 -35.383 41.156l-11.873 8.637-12.727-9.374a115 115 0 0 1 -45.388-72l-5.025-31.9 63.04-28.116 63.042 28.11-5.085 32.214a114.025 114.025 0 0 1 -4.257 16.327z"/><path d="m357.467 282.4-11.315 11.315 24 24a8 8 0 0 0 11.315 0l48-48-11.315-11.315-42.342 42.347z"/></g></svg>