<svg id="Filled" height="512" viewBox="0 0 512 512" width="512" xmlns="http://www.w3.org/2000/svg"><g><g><g><path d="m251.364 274.437-29.317-28.549a20 20 0 0 1 -6.047-14.328v-23.56h-96v23.56a20 20 0 0 1 -6.047 14.328l-29.317 28.549a20 20 0 0 0 -4.636 12.804v206.759a10 10 0 0 0 10 10h156a10 10 0 0 0 10-10v-206.759a20 20 0 0 0 -4.636-12.804z" fill="#f1fcfb"/><g fill="#8ae6da"><rect height="48" rx="10" width="128" x="104" y="160"/><path d="m80 304h176v160h-176z"/></g></g><g><path d="m384 176h-32v-32l8-40h16l8 40z" fill="#8ae6da"/><path d="m408 416h-80v-198a10 10 0 0 1 10-10h60a10 10 0 0 1 10 10z" fill="#8ae6da"/><rect fill="#31cad0" height="32" rx="10" width="128" x="304" y="416"/></g><path d="m112 336h112v64h-112z" fill="#31cad0"/></g><path d="m344 176h48v32h-48z" fill="#31cad0"/><path d="m90 512h102v-16h-102a2 2 0 0 1 -2-2v-22h160v22a2 2 0 0 1 -2 2h-38v16h38a18.021 18.021 0 0 0 18-18v-206.759a28.053 28.053 0 0 0 -6.49-17.925 7.57 7.57 0 0 0 -.565-.61l-29.317-28.549a12.065 12.065 0 0 1 -3.628-8.6v-15.668a18.026 18.026 0 0 0 16-17.889v-28a18.021 18.021 0 0 0 -18-18h-70v16h70a2 2 0 0 1 2 2v28a2 2 0 0 1 -2 2h-108a2 2 0 0 1 -2-2v-28a2 2 0 0 1 2-2h22v-16h-22a18.021 18.021 0 0 0 -18 18v28a18.026 18.026 0 0 0 16 17.889v15.671a12.065 12.065 0 0 1 -3.628 8.6l-29.317 28.546a7.57 7.57 0 0 0 -.565.61 28.053 28.053 0 0 0 -6.49 17.925v206.759a18.021 18.021 0 0 0 18 18zm-2-224.759a12.023 12.023 0 0 1 2.554-7.4l28.98-28.221a28.157 28.157 0 0 0 8.466-20.06v-15.56h80v15.56a28.157 28.157 0 0 0 8.466 20.06l28.98 28.221a12.023 12.023 0 0 1 2.554 7.4v8.759h-160zm0 24.759h160v144h-160z"/><path d="m104 424h80v16h-80z"/><path d="m200 424h32v16h-32z"/><path d="m314 456h22v40h-24v16h112v-16h-24v-40h22a18.021 18.021 0 0 0 18-18v-12a18.021 18.021 0 0 0 -18-18h-6v-190a18.026 18.026 0 0 0 -16-17.889v-16.111h8v-16h-16v-24a8.026 8.026 0 0 0 -.155-1.569l-8-40a8 8 0 0 0 -7.835-6.431l.125-95.99-16-.02-.125 96.01h-.01a8 8 0 0 0 -7.845 6.431l-8 40a8.026 8.026 0 0 0 -.155 1.569v24h-16v16h8v16.111a18.026 18.026 0 0 0 -16 17.889v62h16v-62a2 2 0 0 1 2-2h60a2 2 0 0 1 2 2v38h-32v16h32v32h-16v16h16v32h-32v16h32v40h-64v-112h-16v112h-6a18.021 18.021 0 0 0 -18 18v12a18.021 18.021 0 0 0 18 18zm46-311.208 6.559-32.792h2.882l6.559 32.792v23.208h-16zm24 55.208h-32v-16h32zm0 296h-32v-40h32zm-72-70a2 2 0 0 1 2-2h108a2 2 0 0 1 2 2v12a2 2 0 0 1 -2 2h-108a2 2 0 0 1 -2-2z"/><path d="m224 328h-72v16h64v48h-96v-48h16v-16h-24a8 8 0 0 0 -8 8v64a8 8 0 0 0 8 8h112a8 8 0 0 0 8-8v-64a8 8 0 0 0 -8-8z"/></g></svg>